<?xml version="1.0" encoding="utf-8"?>
<!-- Generator: Adobe Illustrator 22.0.1, SVG Export Plug-In . SVG Version: 6.00 Build 0)  -->
<svg version="1.1" id="layer1" xmlns="http://www.w3.org/2000/svg" xmlns:xlink="http://www.w3.org/1999/xlink" x="0px" y="0px"
	 viewBox="0 0 136.8 92.6" style="enable-background:new 0 0 136.8 92.6;" xml:space="preserve">
<style type="text/css">
	.st0{fill-rule:evenodd;clip-rule:evenodd;fill:#FFFFFF;}
	.st1{fill-rule:evenodd;clip-rule:evenodd;fill:#D5DCDF;}
	.st2{fill-rule:evenodd;clip-rule:evenodd;fill:#96A1AA;}
	.st3{fill-rule:evenodd;clip-rule:evenodd;fill:#BD2E21;}
	.st4{fill-rule:evenodd;clip-rule:evenodd;fill:#761E14;}
</style>
<g>
	<path class="st0" d="M14,70.4c24.4,12.4,42.6,14.8,54.4,7.1c11.8,7.7,30,5.4,54.4-7.1c4.2-15.1,9.7-34.9,12.2-44.1
		c9-33.2-142.1-33.2-133.2,0C4.3,35.5,9.8,55.3,14,70.4z"/>
	<path class="st1" d="M14,70.4c3.2,1.6,6.3,3.1,9.2,4.3c4.7-0.1,8.2-0.1,9-0.1c23.5,0.2,47.5,3.3,70,3.8c0.4,0,0.9,0,1.3,0
		c5.9-1.9,12.3-4.6,19.2-8.1c3.6-12.7,10-35.8,12.8-46.1c-7.5-0.4-14.5,15.8-15.5,23.2c-1.8,13-11.4,2.9-19.6,1.2
		c-28.3-5.7-46.1-5.8-64.6-1.2C16.4,52.4,21,54.5,12.5,33c-2.7-6.9-6-8.6-10.7-12.2c-0.5,1.7-0.5,3.5,0,5.5
		C4.3,35.5,9.8,55.3,14,70.4z"/>
	<path class="st2" d="M14.6,69.9c12,6.1,22.5,9.7,31.4,10.9l0,0c8.9,1.2,16.2-0.2,22-3.9c0.2-0.2,0.5-0.1,0.7,0
		c5.8,3.8,13.1,5.1,22,3.9c8.9-1.2,19.4-4.8,31.4-10.9c2.1-7.4,4.6-16.3,6.9-24.7c2.2-7.8,4.1-14.8,5.2-19.1
		c2.3-8.4-6.5-14.6-20.5-18.6c-12.4-3.6-28.9-5.4-45.4-5.4c-16.5,0-33,1.8-45.4,5.4C9,11.5,0.2,17.7,2.4,26.1
		c1.2,4.3,3.1,11.3,5.2,19.1C10,53.6,12.5,62.5,14.6,69.9L14.6,69.9z M45.8,82.2C36.7,81,26,77.3,13.7,71c-0.2-0.1-0.3-0.2-0.4-0.4
		c-2.3-8.1-4.8-17.1-7-25c-2.1-7.5-4-14.5-5.2-19.1c-2.5-9.3,6.7-16.1,21.5-20.3c12.6-3.6,29.2-5.4,45.8-5.4s33.2,1.8,45.8,5.4
		c14.7,4.2,24,11,21.5,20.3c-1.3,4.6-3.2,11.5-5.2,19.1c-2.2,7.9-4.7,16.9-7,25c0,0.2-0.2,0.4-0.4,0.5c-12.3,6.3-23,10-32.1,11.2
		c-9,1.2-16.6-0.1-22.6-3.9C62.4,82,54.9,83.3,45.8,82.2L45.8,82.2z"/>
	<path class="st0" d="M8.3,70.7c-0.5,18.9,2.6,23.2,23.5,19c25.1-5,50.2-5,75.3,0c20.9,4.1,21.5-0.3,22.2-19.2
		C130,50.7,8.9,50.3,8.3,70.7z"/>
	<path class="st1" d="M8.3,70.7c-0.6,18.9,2.6,23.2,23.5,19c25.1-5,50.2-5,75.3,0c20.9,4.1,21.5-0.3,22.2-19.2
		c0.1-1.5-0.6-2.9-1.9-4.2c-1.5,1.1-2.8,2.5-4.1,4.2c-13.5,18.7-28.6,9-47.3,4.7c-20-4.7-34.9,4.7-52.5,8.4
		C14.7,85.5,10.4,76,9,68.2C8.6,69,8.3,69.8,8.3,70.7z"/>
	<path class="st2" d="M9,70.7c-0.3,9.2,0.3,14.9,3.4,17.6c3.1,2.7,9,2.8,19.2,0.7c12.6-2.5,25.2-3.7,37.8-3.7
		c12.6,0,25.2,1.2,37.8,3.7c10.2,2,15.4,2,18.1-0.8c2.7-2.8,3-8.5,3.3-17.8c0.2-5.9-11.8-10.1-28.3-12.3c-7.5-1-15.9-1.7-24.5-1.9
		c-8.6-0.2-17.4,0-25.7,0.6C27.7,58.6,9.2,63.2,9,70.7L9,70.7z M11.6,89.4c-3.5-3.1-4.2-9-3.9-18.7C7.9,62.2,26.9,57.2,50,55.5
		c8.3-0.6,17.1-0.8,25.8-0.6c8.6,0.2,17.1,0.8,24.7,1.9c17.2,2.4,29.8,7,29.5,13.8c-0.3,9.6-0.7,15.6-3.7,18.7
		c-3,3.2-8.6,3.3-19.3,1.2c-12.5-2.5-25-3.7-37.5-3.7s-25,1.2-37.5,3.7C21.3,92.5,15.1,92.5,11.6,89.4z"/>
	<polygon class="st3" points="62.9,16.6 73.6,16.6 73.6,27.7 84.4,27.7 84.4,38.7 73.6,38.7 73.6,49.8 62.9,49.8 62.9,38.7 
		52.2,38.7 52.2,27.7 62.9,27.7 	"/>
	<path class="st4" d="M62.9,16.1h10.7c0.3,0,0.5,0.2,0.5,0.5v10.6h10.2c0.3,0,0.5,0.2,0.5,0.5v11.1c0,0.3-0.2,0.5-0.5,0.5H74.1v10.6
		c0,0.3-0.2,0.5-0.5,0.5H62.9c-0.3,0-0.5-0.2-0.5-0.5V39.2H52.2c-0.3,0-0.5-0.2-0.5-0.5V27.7c0-0.3,0.2-0.5,0.5-0.5h10.2V16.6
		C62.4,16.3,62.7,16.1,62.9,16.1L62.9,16.1z M73.2,17.1h-9.8v10.6c0,0.3-0.2,0.5-0.5,0.5H52.7v10.1h10.2c0.3,0,0.5,0.2,0.5,0.5v10.6
		h9.8V38.7c0-0.3,0.2-0.5,0.5-0.5h10.2V28.2H73.6c-0.3,0-0.5-0.2-0.5-0.5V17.1z"/>
	<path class="st2" d="M114.4,5.4c0.7,0.2,1.3,0.4,2,0.6c0.7,0.2,1.3,0.4,1.9,0.6c6.6,2.3,11.8,5.1,15,8.6c3,3.3,4.2,7.1,3,11.4
		c-0.5,1.9-1.3,4.7-2.2,8.1c-1,3.6-2,7.3-3,11l-2.5,8.9l-2.5,8.9c1.4,1,2.5,2,3.3,3.1c0.9,1.2,1.3,2.5,1.2,3.9
		c-0.2,4.8-0.3,8.8-0.8,11.9c-0.5,3.2-1.4,5.6-3,7.3c-1.7,1.7-3.9,2.6-7.2,2.8c-3.2,0.2-7.3-0.3-12.7-1.4
		c-6.2-1.2-12.5-2.2-18.7-2.8c-6.2-0.6-12.4-0.9-18.7-0.9c-12.5,0-24.9,1.2-37.4,3.7c-5.4,1.1-9.6,1.6-13,1.4c-3.5-0.1-6-1-7.9-2.6
		c-1.9-1.7-3-4.1-3.6-7.3c-0.6-3.1-0.7-7.1-0.5-12c0-1.3,0.4-2.4,1.2-3.6c0.7-1,1.6-1.9,2.7-2.8l-2.6-9.4l-2.6-9.2
		c-1-3.7-2-7.4-3-10.9c-0.9-3.5-1.7-6.3-2.2-8.2c-1.3-4.7,0.3-8.8,3.9-12.3c3.9-3.7,10.2-6.7,18-8.9c6.2-1.8,13.4-3.1,21-4
		C51.4,0.5,59.9,0,68.4,0s17,0.5,24.9,1.4C101,2.3,108.2,3.7,114.4,5.4L114.4,5.4z M115.9,7.4c-0.6-0.2-1.3-0.4-2-0.6
		c-6.1-1.8-13.2-3.1-20.8-4c-7.9-0.9-16.3-1.4-24.8-1.4S51.5,1.9,43.6,2.8C36,3.7,28.9,5,22.8,6.8c-7.6,2.2-13.7,5-17.4,8.6
		c-3.3,3.1-4.7,6.7-3.5,10.9c0.7,2.6,1.5,5.3,2.2,8.2c0.8,3.1,1.9,6.8,3,10.9l2.6,9.2l2.7,9.8c0.1,0.3,0,0.6-0.3,0.8
		c-1.2,0.9-2.2,1.8-2.8,2.7c-0.6,0.9-0.9,1.8-0.9,2.8c-0.1,4.8,0,8.6,0.5,11.7c0.5,2.9,1.5,5.1,3.2,6.5c1.6,1.4,3.9,2.2,7.1,2.3
		c3.3,0.1,7.4-0.4,12.7-1.4C44.3,87.3,56.9,86,69.4,86c6.3,0,12.5,0.3,18.8,0.9c6.3,0.6,12.6,1.6,18.8,2.8c5.3,1,9.3,1.5,12.4,1.4
		c2.9-0.2,4.9-0.9,6.3-2.4c1.4-1.5,2.2-3.6,2.7-6.6c0.5-3,0.7-6.9,0.8-11.7c0-1.1-0.3-2.1-1-3.1c-0.7-1.1-1.9-2.1-3.3-3
		c-0.3-0.2-0.4-0.5-0.3-0.8l2.6-9.4l2.5-8.9c1.1-4.1,2.2-7.9,3-11c0.8-2.8,1.5-5.5,2.2-8.1c1-3.8,0-7.2-2.7-10.1
		c-3-3.3-8-6-14.4-8.2C117.2,7.8,116.6,7.6,115.9,7.4z"/>
</g>
</svg>
